FILE "Beebris (2009)(Bad Brew Crew - Reboot).bin" BINARY
  TRACK 01 AUDIO
    INDEX 01 00:00:00
  TRACK 02 AUDIO
    INDEX 01 00:14:29
  TRACK 03 AUDIO
    INDEX 01 00:22:28
  TRACK 04 AUDIO
    INDEX 01 00:34:01
  TRACK 05 AUDIO
    INDEX 01 00:45:49
